<mxfile host="app.diagrams.net" modified="2024-04-11T21:45:17.361Z" agent="Mozilla/5.0 (Windows NT 10.0; Win64; x64) AppleWebKit/537.36 (KHTML, like Gecko) Chrome/123.0.0.0 Safari/537.36" etag="fJC-ntKC_-NUKTVZBpOV" version="24.2.3" type="device">
  <diagram name="Page-1" id="DdqpLTShFiZHF6_bz9sU">
    <mxGraphModel dx="1050" dy="1630" grid="1" gridSize="10" guides="1" tooltips="1" connect="1" arrows="1" fold="1" page="1" pageScale="1" pageWidth="850" pageHeight="1100" math="0" shadow="0">
      <root>
        <mxCell id="0" />
        <mxCell id="1" parent="0" />
        <mxCell id="UI_3waklnXK-JXXgDbzm-2" value="" style="shape=ellipse;html=1;fillColor=strokeColor;strokeWidth=2;verticalLabelPosition=bottom;verticalAlignment=top;perimeter=ellipsePerimeter;" vertex="1" parent="1">
          <mxGeometry x="65" width="30" height="30" as="geometry" />
        </mxCell>
        <mxCell id="UI_3waklnXK-JXXgDbzm-3" value="Search for patient" style="html=1;dashed=0;whiteSpace=wrap;" vertex="1" parent="1">
          <mxGeometry x="30" y="60" width="100" height="50" as="geometry" />
        </mxCell>
        <mxCell id="UI_3waklnXK-JXXgDbzm-4" value="View Patient&#39;s visit history" style="html=1;dashed=0;whiteSpace=wrap;" vertex="1" parent="1">
          <mxGeometry x="30" y="200" width="100" height="50" as="geometry" />
        </mxCell>
        <mxCell id="UI_3waklnXK-JXXgDbzm-18" style="edgeStyle=orthogonalEdgeStyle;rounded=0;orthogonalLoop=1;jettySize=auto;html=1;exitX=0.5;exitY=1;exitDx=0;exitDy=0;entryX=0.5;entryY=1;entryDx=0;entryDy=0;" edge="1" parent="1" source="UI_3waklnXK-JXXgDbzm-5" target="UI_3waklnXK-JXXgDbzm-7">
          <mxGeometry relative="1" as="geometry" />
        </mxCell>
        <mxCell id="UI_3waklnXK-JXXgDbzm-5" value="Update Visit Details" style="html=1;dashed=0;whiteSpace=wrap;" vertex="1" parent="1">
          <mxGeometry x="30" y="400" width="100" height="50" as="geometry" />
        </mxCell>
        <mxCell id="UI_3waklnXK-JXXgDbzm-16" style="edgeStyle=orthogonalEdgeStyle;rounded=0;orthogonalLoop=1;jettySize=auto;html=1;exitX=0.5;exitY=1;exitDx=0;exitDy=0;entryX=0.5;entryY=0;entryDx=0;entryDy=0;" edge="1" parent="1" source="UI_3waklnXK-JXXgDbzm-6" target="UI_3waklnXK-JXXgDbzm-5">
          <mxGeometry relative="1" as="geometry" />
        </mxCell>
        <mxCell id="UI_3waklnXK-JXXgDbzm-6" value="Record New Visit" style="html=1;dashed=0;whiteSpace=wrap;" vertex="1" parent="1">
          <mxGeometry x="30" y="320" width="100" height="50" as="geometry" />
        </mxCell>
        <mxCell id="UI_3waklnXK-JXXgDbzm-7" value="" style="ellipse;html=1;shape=endState;fillColor=#000000;strokeColor=#ff0000;" vertex="1" parent="1">
          <mxGeometry x="200" y="420" width="30" height="30" as="geometry" />
        </mxCell>
        <mxCell id="UI_3waklnXK-JXXgDbzm-12" value="" style="endArrow=classic;html=1;rounded=0;entryX=0.5;entryY=0;entryDx=0;entryDy=0;" edge="1" parent="1" source="UI_3waklnXK-JXXgDbzm-2" target="UI_3waklnXK-JXXgDbzm-3">
          <mxGeometry width="50" height="50" relative="1" as="geometry">
            <mxPoint x="40" y="90" as="sourcePoint" />
            <mxPoint x="90" y="40" as="targetPoint" />
          </mxGeometry>
        </mxCell>
        <mxCell id="UI_3waklnXK-JXXgDbzm-13" value="" style="endArrow=classic;html=1;rounded=0;exitX=0.5;exitY=1;exitDx=0;exitDy=0;entryX=0.5;entryY=0;entryDx=0;entryDy=0;entryPerimeter=0;" edge="1" parent="1" source="UI_3waklnXK-JXXgDbzm-3" target="UI_3waklnXK-JXXgDbzm-21">
          <mxGeometry width="50" height="50" relative="1" as="geometry">
            <mxPoint x="70" y="250" as="sourcePoint" />
            <mxPoint x="120" y="200" as="targetPoint" />
          </mxGeometry>
        </mxCell>
        <mxCell id="UI_3waklnXK-JXXgDbzm-14" value="" style="endArrow=classic;html=1;rounded=0;entryX=0.5;entryY=0;entryDx=0;entryDy=0;exitX=0.5;exitY=1;exitDx=0;exitDy=0;" edge="1" parent="1" source="UI_3waklnXK-JXXgDbzm-4" target="UI_3waklnXK-JXXgDbzm-6">
          <mxGeometry width="50" height="50" relative="1" as="geometry">
            <mxPoint x="70" y="250" as="sourcePoint" />
            <mxPoint x="120" y="200" as="targetPoint" />
          </mxGeometry>
        </mxCell>
        <mxCell id="UI_3waklnXK-JXXgDbzm-22" style="edgeStyle=orthogonalEdgeStyle;rounded=0;orthogonalLoop=1;jettySize=auto;html=1;exitX=0.5;exitY=1;exitDx=0;exitDy=0;exitPerimeter=0;entryX=0.5;entryY=0;entryDx=0;entryDy=0;" edge="1" parent="1" source="UI_3waklnXK-JXXgDbzm-21" target="UI_3waklnXK-JXXgDbzm-4">
          <mxGeometry relative="1" as="geometry" />
        </mxCell>
        <mxCell id="UI_3waklnXK-JXXgDbzm-25" style="edgeStyle=orthogonalEdgeStyle;rounded=0;orthogonalLoop=1;jettySize=auto;html=1;exitX=1;exitY=0.5;exitDx=0;exitDy=0;exitPerimeter=0;entryX=0;entryY=0.5;entryDx=0;entryDy=0;" edge="1" parent="1" source="UI_3waklnXK-JXXgDbzm-21" target="UI_3waklnXK-JXXgDbzm-23">
          <mxGeometry relative="1" as="geometry" />
        </mxCell>
        <mxCell id="UI_3waklnXK-JXXgDbzm-21" value="" style="strokeWidth=2;html=1;shape=mxgraph.flowchart.decision;whiteSpace=wrap;" vertex="1" parent="1">
          <mxGeometry x="65" y="140" width="30" height="30" as="geometry" />
        </mxCell>
        <mxCell id="UI_3waklnXK-JXXgDbzm-26" style="edgeStyle=orthogonalEdgeStyle;rounded=0;orthogonalLoop=1;jettySize=auto;html=1;exitX=0.5;exitY=1;exitDx=0;exitDy=0;entryX=1;entryY=0.75;entryDx=0;entryDy=0;" edge="1" parent="1" source="UI_3waklnXK-JXXgDbzm-23" target="UI_3waklnXK-JXXgDbzm-6">
          <mxGeometry relative="1" as="geometry" />
        </mxCell>
        <mxCell id="UI_3waklnXK-JXXgDbzm-23" value="Create new Account" style="whiteSpace=wrap;html=1;align=center;" vertex="1" parent="1">
          <mxGeometry x="140" y="135" width="100" height="40" as="geometry" />
        </mxCell>
      </root>
    </mxGraphModel>
  </diagram>
</mxfile>
